<svg width="17" height="18" viewBox="0 0 17 18" fill="none" xmlns="http://www.w3.org/2000/svg">
<path d="M8.5 16.3975C9.98336 16.3975 11.4334 15.946 12.6668 15.1C13.9001 14.2541 14.8614 13.0517 15.4291 11.6449C15.9967 10.2382 16.1453 8.6902 15.8559 7.19679C15.5665 5.70338 14.8522 4.3316 13.8033 3.25491C12.7544 2.17823 11.418 1.44499 9.96318 1.14793C8.50832 0.850875 7.00032 1.00334 5.62987 1.58604C4.25943 2.16874 3.08809 3.15551 2.26398 4.42156C1.43987 5.68761 1 7.17608 1 8.69874C1 10.7406 1.79018 12.6988 3.1967 14.1426C4.60322 15.5864 6.51088 16.3975 8.5 16.3975Z" stroke="#0056FF" stroke-width="1.5"/>
<path d="M8.39844 4.89062V12.3008" stroke="#0056FF" stroke-width="1.5" stroke-linecap="round"/>
<path d="M12.006 8.58984H4.78711" stroke="#0056FF" stroke-width="1.5" stroke-linecap="round"/>
</svg>
