<svg width="14" height="14" viewBox="0 0 14 14" fill="none" xmlns="http://www.w3.org/2000/svg">
<path d="M2.91666 10.5008H5.39C5.46677 10.5012 5.54287 10.4865 5.61394 10.4575C5.68501 10.4284 5.74966 10.3857 5.80416 10.3316L9.84083 6.28911L11.4975 4.66745C11.5522 4.61322 11.5956 4.5487 11.6252 4.47761C11.6548 4.40653 11.67 4.33029 11.67 4.25328C11.67 4.17627 11.6548 4.10003 11.6252 4.02894C11.5956 3.95786 11.5522 3.89334 11.4975 3.83911L9.02416 1.33661C8.96994 1.28194 8.90542 1.23854 8.83433 1.20892C8.76325 1.17931 8.687 1.16406 8.61 1.16406C8.53299 1.16406 8.45675 1.17931 8.38566 1.20892C8.31458 1.23854 8.25006 1.28194 8.19583 1.33661L6.55083 2.98744L2.5025 7.02995C2.44843 7.08445 2.40566 7.1491 2.37663 7.22017C2.3476 7.29124 2.33289 7.36734 2.33333 7.44411V9.91745C2.33333 10.0722 2.39479 10.2205 2.50419 10.3299C2.61358 10.4393 2.76195 10.5008 2.91666 10.5008ZM8.61 2.57328L10.2608 4.22411L9.4325 5.05244L7.78166 3.40161L8.61 2.57328ZM3.5 7.68328L6.95916 4.22411L8.61 5.87495L5.15083 9.33411H3.5V7.68328ZM12.25 11.6674H1.75C1.59529 11.6674 1.44691 11.7289 1.33752 11.8383C1.22812 11.9477 1.16666 12.0961 1.16666 12.2508C1.16666 12.4055 1.22812 12.5539 1.33752 12.6633C1.44691 12.7727 1.59529 12.8341 1.75 12.8341H12.25C12.4047 12.8341 12.5531 12.7727 12.6625 12.6633C12.7719 12.5539 12.8333 12.4055 12.8333 12.2508C12.8333 12.0961 12.7719 11.9477 12.6625 11.8383C12.5531 11.7289 12.4047 11.6674 12.25 11.6674Z" fill="#0056FF"/>
</svg>
