<svg width="18" height="17" viewBox="0 0 18 17" fill="none" xmlns="http://www.w3.org/2000/svg">
<path d="M16.7983 14.9309L12.2077 10.6206C13.1127 9.60219 13.657 8.30079 13.657 6.8794C13.657 3.63665 10.8207 1 7.3318 1C3.84291 1 1 3.63973 1 6.88247C1 10.1252 3.83636 12.7619 7.32524 12.7619C8.80736 12.7619 10.1714 12.285 11.2535 11.4882L15.8605 15.8108C16.1294 16.0631 16.5295 16.0631 16.7983 15.8108C17.0672 15.5585 17.0672 15.1832 16.7983 14.9309ZM2.3444 6.88247C2.3444 4.33504 4.5807 2.26449 7.32524 2.26449C10.0698 2.26449 12.3061 4.33504 12.3061 6.88247C12.3061 9.4299 10.0698 11.5005 7.32524 11.5005C4.5807 11.5005 2.3444 9.42683 2.3444 6.88247Z" fill="#0056FF" stroke="#0056FF"/>
</svg>
