<svg width="20" height="20" viewBox="0 0 20 20" fill="none" xmlns="http://www.w3.org/2000/svg">
<path d="M15.5508 9.10938C15.5508 9.0625 15.5586 9.01563 15.5586 8.96875C15.5586 6.42969 13.5352 4.375 11.0391 4.375C9.23828 4.375 7.69141 5.44531 6.96484 6.99219C6.64844 6.83203 6.29297 6.73828 5.91797 6.73828C4.76562 6.73828 3.80469 7.59375 3.62109 8.71094C2.23828 9.1875 1.25 10.5117 1.25 12.0703C1.25 14.0312 2.81641 15.625 4.74609 15.625H8.75V12.5H6.86719L10 9.23047L13.1328 12.4961H11.25V15.6211H15.5586C17.3242 15.6211 18.75 14.1562 18.75 12.3633C18.75 10.5703 17.3164 9.11328 15.5508 9.10938Z" fill="white"/>
</svg>
