<svg width="16" height="16" viewBox="0 0 16 16" fill="none" xmlns="http://www.w3.org/2000/svg">
<path d="M8.41406 15.5703C12.5562 15.5703 15.9141 12.2124 15.9141 8.07031C15.9141 3.92818 12.5562 0.570312 8.41406 0.570312C4.27193 0.570312 0.914062 3.92818 0.914062 8.07031C0.914062 12.2124 4.27193 15.5703 8.41406 15.5703Z" fill="#3F89FE"/>
<path d="M8.41406 15.0703C12.2801 15.0703 15.4141 11.9363 15.4141 8.07031C15.4141 4.20432 12.2801 1.07031 8.41406 1.07031C4.54807 1.07031 1.41406 4.20432 1.41406 8.07031C1.41406 11.9363 4.54807 15.0703 8.41406 15.0703Z" stroke="#3F89FE"/>
<path fill-rule="evenodd" clip-rule="evenodd" d="M12.336 5.52059C12.6418 5.80002 12.6631 6.27441 12.3837 6.58018L7.80974 11.5852C7.66912 11.739 7.47082 11.8275 7.26239 11.8292C7.05396 11.8309 6.8542 11.7459 6.71103 11.5944L4.86899 9.64538C4.58447 9.34435 4.59787 8.86966 4.8989 8.58515C5.19994 8.30063 5.67462 8.31402 5.95914 8.61506L7.24687 9.97757L11.2764 5.56827C11.5559 5.26251 12.0303 5.24116 12.336 5.52059Z" fill="white"/>
</svg>
