<svg width="15" height="15" viewBox="0 0 12 14" fill="none" xmlns="http://www.w3.org/2000/svg">
<path d="M6.5 3.41797H10.8462C11.2073 3.41797 11.5 3.71071 11.5 4.07181V4.91797C11.5 6.29868 10.3807 7.41797 9 7.41797C7.61929 7.41797 6.5 6.29868 6.5 4.91797V3.41797Z" stroke="#C4C4C4"/>
<path d="M1.15385 3.41797H5.5V4.91797C5.5 6.29868 4.38071 7.41797 3 7.41797C1.61929 7.41797 0.5 6.29868 0.5 4.91797V4.07182C0.5 3.71071 0.792737 3.41797 1.15385 3.41797Z" stroke="#C4C4C4"/>
<path d="M2 0.917969H10V5.91797C10 8.12711 8.20914 9.91797 6 9.91797V9.91797C3.79086 9.91797 2 8.12711 2 5.91797V0.917969Z" fill="#C4C4C4"/>
<path d="M10 13.918L2 13.918V13.918C2 11.7088 3.79086 9.91797 6 9.91797V9.91797C8.20914 9.91797 10 11.7088 10 13.918V13.918Z" fill="#C4C4C4"/>
</svg>
