<svg width="11" height="14" viewBox="0 0 11 14" fill="none" xmlns="http://www.w3.org/2000/svg">
<rect y="13.3477" width="13" height="11" rx="2" transform="rotate(-90 0 13.3477)" fill="#C4C4C4"/>
<line x1="2.5" y1="3.84766" x2="8.5" y2="3.84766" stroke="white" stroke-linecap="round"/>
<line x1="2.5" y1="6.84766" x2="8.5" y2="6.84766" stroke="white" stroke-linecap="round"/>
<line x1="2.5" y1="9.84766" x2="4.5" y2="9.84766" stroke="white" stroke-linecap="round"/>
<path d="M7.59103 12.0017L6.50409 12.214L6.58359 11.1094L9.47013 7.85044C9.71654 7.57225 10.1418 7.54648 10.42 7.79288V7.79288C10.6982 8.03929 10.724 8.46457 10.4776 8.74277L7.59103 12.0017Z" fill="#3F89FE"/>
<path d="M7.59103 12.0017L6.50409 12.214L6.58359 11.1094L9.47013 7.85044C9.71654 7.57225 10.1418 7.54648 10.42 7.79288V7.79288C10.6982 8.03929 10.724 8.46457 10.4776 8.74277L7.59103 12.0017Z" fill="white"/>
</svg>
